<?xml version="1.0" encoding="UTF-8"?>
<svg width="305px" height="305px" viewBox="0 0 305 305" version="1.1" xmlns="http://www.w3.org/2000/svg" xmlns:xlink="http://www.w3.org/1999/xlink">
    <g id="Ti" stroke="none" stroke-width="1" fill="none" fill-rule="evenodd">
        <path d="M162.912,200.104 C169.284,200.104 175.42,196.564 175.42,194.912 L175.42,189.956 L228.756,189.956 L228.756,197.744 L231.116,197.744 C236.308,197.744 243.388,194.204 243.624,192.552 L243.624,97.68 C247.164,96.972 250.232,95.556 251.648,94.14 L234.656,80.924 L226.868,89.42 L199.964,89.42 C203.504,83.048 207.28,74.788 210.348,67.708 L255.896,67.708 C259.2,67.708 261.324,66.528 262.032,63.932 C254.716,57.088 242.68,47.884 242.68,47.884 L232.532,60.864 L149.46,60.864 L151.348,67.708 L194.536,67.708 C193.592,74.316 191.94,82.576 190.76,89.42 L176.6,89.42 L160.788,81.868 L160.788,200.104 L162.912,200.104 Z M62.848,138.744 C68.984,138.744 75.356,135.44 75.356,133.788 L75.356,128.596 L123.264,128.596 L123.264,136.856 L125.152,136.856 C130.108,136.856 137.66,133.552 137.896,132.136 L137.896,69.596 C142.852,68.416 146.392,66.528 148.044,64.64 L129.164,50.244 L120.904,59.448 L76.536,59.448 L60.724,52.368 L60.724,138.744 L62.848,138.744 Z M123.264,90.6 L75.356,90.6 L75.356,66.528 L123.264,66.528 L123.264,90.6 Z M228.756,120.336 L175.42,120.336 L175.42,96.264 L228.756,96.264 L228.756,120.336 Z M123.264,121.752 L75.356,121.752 L75.356,97.208 L123.264,97.208 L123.264,121.752 Z M228.756,151.724 L175.42,151.724 L175.42,127.416 L228.756,127.416 L228.756,151.724 Z M45.148,262.644 C58.836,248.484 66.624,228.188 71.108,207.656 C93.056,248.248 125.624,256.508 185.096,256.508 L251.884,256.508 C252.356,250.608 255.66,245.888 261.796,244.708 L261.796,241.64 C246.152184,241.838023 215.554218,241.869889 195.934088,241.875017 L186.04,241.876 C152.528,241.876 127.276,240.224 107.688,232.2 L107.688,195.148 L145.92,195.148 C149.224,195.148 151.584,194.204 152.056,191.608 C145.684,185.236 135.536,176.268 135.536,176.268 L126.096,188.54 L107.688,188.54 L107.688,157.624 L150.168,157.624 C153.472,157.624 155.596,156.444 156.304,154.084 C149.224,147.24 138.368,138.272 138.368,138.272 L128.22,150.78 L44.676,150.78 L46.328,157.624 L93.056,157.624 L93.056,224.176 C85.032,218.512 78.188,210.96 72.288,201.048 C73.468,194.676 74.412,188.54 75.12,182.64 C80.548,182.168 83.144,180.044 83.616,176.504 L61.432,174.144 C60.724,203.172 55.532,238.336 42.316,259.576 L45.148,262.644 Z M228.756,183.112 L175.42,183.112 L175.42,158.332 L228.756,158.332 L228.756,183.112 Z M142.144,235.032 C161.024,229.368 180.612,217.568 190.996,208.128 C196.896,208.836 200.2,208.128 201.38,205.532 L180.612,196.092 C173.06,207.184 156.068,223.232 139.784,231.964 L142.144,235.032 Z M209.404,197.508 L207.516,201.284 C225.924,210.724 237.724,221.816 242.208,231.964 C254.008,244.944 274.304,213.084 209.404,197.508 Z" id="題" fill="#0074CC" fill-rule="nonzero"></path>
    </g>
</svg>